<?xml version="1.0" standalone="no"?>
<!DOCTYPE svg PUBLIC "-//W3C//DTD SVG 20010904//EN"
 "http://www.w3.org/TR/2001/REC-SVG-20010904/DTD/svg10.dtd">
<svg version="1.0" xmlns="http://www.w3.org/2000/svg"
 width="512.000000pt" height="512.000000pt" viewBox="0 0 512.000000 512.000000"
 preserveAspectRatio="xMidYMid meet">
<metadata>
Created by potrace 1.16, written by Peter Selinger 2001-2019
</metadata>
<g transform="translate(0.000000,512.000000) scale(0.100000,-0.100000)"
fill="#000000" stroke="none">
<path d="M3629 3948 c-3 -238 -2 -471 1 -517 l5 -84 94 114 c51 63 101 118
111 123 38 18 67 -4 166 -124 l99 -121 3 492 c1 271 1 494 -2 496 -7 7 -273
42 -372 48 l-101 6 -4 -433z"/>
<path d="M364 3930 c-90 -21 -131 -45 -169 -99 l-30 -43 -3 -1439 c-2 -1401
-2 -1440 17 -1477 26 -50 58 -78 110 -97 58 -20 109 -19 225 5 283 59 557 85
826 77 295 -8 520 -48 751 -133 90 -33 97 -37 113 -75 23 -52 82 -94 170 -121
104 -33 292 -32 393 1 81 26 134 70 153 125 10 30 19 37 82 60 424 157 918
188 1472 91 77 -14 159 -29 181 -35 133 -32 255 15 294 115 8 23 11 386 9
1467 l-3 1436 -30 44 c-17 23 -48 52 -68 64 -35 19 -145 50 -152 42 -1 -1 0
-28 2 -60 l5 -56 43 -11 c26 -7 52 -22 64 -37 24 -31 25 -63 14 -412 l-6 -212
-57 0 -57 0 -6 -232 c-4 -128 -7 -545 -7 -925 l0 -693 -109 0 -108 0 -45 -44
c-61 -61 -90 -65 -241 -31 -270 60 -534 83 -737 66 -232 -20 -439 -75 -611
-162 -93 -46 -149 -51 -228 -18 -40 17 -57 20 -74 12 -31 -15 -122 -33 -163
-33 -21 0 -69 17 -122 44 -352 176 -825 208 -1343 90 -146 -33 -176 -29 -237
32 l-45 44 -92 0 -92 0 -7 61 c-3 34 -6 451 -6 925 l0 864 -73 0 -74 0 -6 173
c-4 94 -7 231 -7 303 0 116 2 133 20 152 19 20 76 42 113 42 23 0 29 17 25 77
l-3 49 -71 -16z"/>
</g>
</svg>
